HIERARCHY
ROOT Hips
{
	OFFSET 0.000000 0.000000 0.000000
	CHANNELS 6 Xposition Yposition Zposition Zrotation Yrotation Xrotation 
	JOINT LHipJoint
	{
		OFFSET 0.000000 0.000000 0.000000
		CHANNELS 3 Zrotation Yrotation Xrotation
		JOINT LeftUpLeg
		{
			OFFSET 1.363060 -1.794630 0.839290
			CHANNELS 3 Zrotation Yrotation Xrotation
			JOINT LeftLeg
			{
				OFFSET 2.448110 -6.726130 0.000000
				CHANNELS 3 Zrotation Yrotation Xrotation
				JOINT LeftFoot
				{
					OFFSET 2.562200 -7.039590 0.000000
					CHANNELS 3 Zrotation Yrotation Xrotation
					JOINT LeftToeBase
					{
						OFFSET 0.157640 -0.433110 2.322550
						CHANNELS 3 Zrotation Yrotation Xrotation
						End Site
						{
							OFFSET 0.000000 0.000000 0.000000
						}
					}
				}
			}
		}
	}
	JOINT RHipJoint
	{
		OFFSET 0.000000 0.000000 0.000000
		CHANNELS 3 Zrotation Yrotation Xrotation
		JOINT RightUpLeg
		{
			OFFSET -1.305520 -1.794630 0.839290
			CHANNELS 3 Zrotation Yrotation Xrotation
			JOINT RightLeg
			{
				OFFSET -2.542530 -6.985550 0.000000
				CHANNELS 3 Zrotation Yrotation Xrotation
				JOINT RightFoot
				{
					OFFSET -2.568260 -7.056230 0.000000
					CHANNELS 3 Zrotation Yrotation Xrotation
					JOINT RightToeBase
					{
						OFFSET -0.164730 -0.452590 2.363150
						CHANNELS 3 Zrotation Yrotation Xrotation
						End Site
						{
							OFFSET 0.000000 0.000000 0.000000
						}
					}
				}
			}
		}
	}
	JOINT LowerBack
	{
		OFFSET 0.000000 0.000000 0.000000
		CHANNELS 3 Zrotation Yrotation Xrotation
		JOINT Spine
		{
			OFFSET 0.028270 2.035590 -0.193380
			CHANNELS 3 Zrotation Yrotation Xrotation
			JOINT Spine1
			{
				OFFSET 0.056720 2.048850 -0.042750
				CHANNELS 3 Zrotation Yrotation Xrotation
				JOINT Neck
				{
					OFFSET 0.000000 0.000000 0.000000
					CHANNELS 3 Zrotation Yrotation Xrotation
					JOINT Neck1
					{
						OFFSET -0.054170 1.746240 0.172020
						CHANNELS 3 Zrotation Yrotation Xrotation
						JOINT Head
						{
							OFFSET 0.104070 1.761360 -0.123970
							CHANNELS 3 Zrotation Yrotation Xrotation
							End Site
							{
								OFFSET 0.000000 0.000000 0.000000
							}
						}
					}
				}
				JOINT LeftShoulder
				{
					OFFSET 0.000000 0.000000 0.000000
					CHANNELS 3 Zrotation Yrotation Xrotation
					JOINT LeftArm
					{
						OFFSET 3.362410 1.200890 -0.311210
						CHANNELS 3 Zrotation Yrotation Xrotation
						JOINT LeftForeArm
						{
							OFFSET 4.983000 -0.000000 -0.000000
							CHANNELS 3 Zrotation Yrotation Xrotation
							JOINT LeftHand
							{
								OFFSET 3.483560 -0.000000 -0.000000
								CHANNELS 3 Zrotation Yrotation Xrotation
								JOINT LeftFingerBase
								{
									OFFSET 0.000000 0.000000 0.000000
									CHANNELS 3 Zrotation Yrotation Xrotation
									JOINT LeftHandIndex1
									{
										OFFSET 0.715260 -0.000000 -0.000000
										CHANNELS 3 Zrotation Yrotation Xrotation
										End Site
										{
											OFFSET 0.000000 0.000000 0.000000
										}
									}
								}
								JOINT LThumb
								{
									OFFSET 0.000000 0.000000 0.000000
									CHANNELS 3 Zrotation Yrotation Xrotation
									End Site
									{
										OFFSET 0.000000 0.000000 0.000000
									}
								}
							}
						}
					}
				}
				JOINT RightShoulder
				{
					OFFSET 0.000000 0.000000 0.000000
					CHANNELS 3 Zrotation Yrotation Xrotation
					JOINT RightArm
					{
						OFFSET -3.136600 1.374050 -0.404650
						CHANNELS 3 Zrotation Yrotation Xrotation
						JOINT RightForeArm
						{
							OFFSET -5.241900 -0.000000 -0.000000
							CHANNELS 3 Zrotation Yrotation Xrotation
							JOINT RightHand
							{
								OFFSET -3.444170 -0.000000 -0.000000
								CHANNELS 3 Zrotation Yrotation Xrotation
								JOINT RightFingerBase
								{
									OFFSET 0.000000 0.000000 0.000000
									CHANNELS 3 Zrotation Yrotation Xrotation
									JOINT RightHandIndex1
									{
										OFFSET -0.622530 -0.000000 -0.000000
										CHANNELS 3 Zrotation Yrotation Xrotation
										End Site
										{
											OFFSET 0.000000 0.000000 0.000000
										}
									}
								}
								JOINT RThumb
								{
									OFFSET 0.000000 0.000000 0.000000
									CHANNELS 3 Zrotation Yrotation Xrotation
									End Site
									{
										OFFSET 0.000000 0.000000 0.000000
									}
								}
							}
						}
					}
				}
			}
		}
	}
}
MOTION
Frames: 5
Frame Time: 0.008333
-12.275524 17.858051 -9.590018 -5.513649 51.180158 -2.620068 -2.899577 0.034535 0.437320 -9.709331 -7.575382 -25.383028 0.549674 9.361096 26.574939 0.021646 0.806734 4.788699 0.231600 -3.097400 -8.550100 1.800618 -0.985472 1.955881 26.601366 -0.938063 2.318504 0.002335 -4.593131 14.856239 -0.217706 -0.632635 -4.507889 -0.329900 -3.691600 10.210600 4.262635 1.333179 9.569303 2.281229 2.397563 1.481929 -0.699630 1.228369 -3.434178 -11.448104 -7.260100 -11.816973 6.369879 -8.446671 23.208111 4.047100 -4.247400 15.215600 -6.763116 -0.612192 -1.577913 -84.867314 3.832559 16.809539 13.481300 -19.098945 -2.669920 -1.722767 -2.351178 8.053289 20.339876 22.082425 9.420300 -7.125000 0.000000 0.000000 -8.428500 56.014700 -2.288900 5.565743 1.570874 -0.962769 81.538147 -2.362788 12.956543 -13.018481 19.555430 -2.416372 0.400952 -0.233275 10.222541 -14.938729 7.808848 -2.179800 7.125000 0.000000 0.000000 8.315300 -21.763300 4.688000 
-12.228052 17.858856 -9.551798 -5.642095 51.139704 -2.574222 -2.955304 0.006734 0.426477 -9.547793 -7.403017 -25.458341 0.246768 8.850161 24.985953 0.039483 0.828694 4.921207 0.248500 -3.207400 -8.856600 1.808536 -0.984779 1.960796 26.667348 -0.944571 2.709700 0.064109 -4.377545 14.255011 -0.193217 -0.706575 -4.300340 -0.319200 -3.631600 10.042500 4.292728 1.368954 9.422673 2.336331 2.436989 1.503499 -0.612424 1.250403 -3.329384 -11.561221 -7.256784 -11.845481 6.394345 -8.400177 23.094616 4.080500 -4.240600 15.161900 -6.785838 -0.600833 -1.569856 -85.003219 3.797263 16.397835 13.245006 -18.739358 -2.562935 -1.740535 -2.326111 8.549723 20.195928 21.978644 9.312100 -7.125000 0.000000 0.000000 -8.532900 55.867500 -2.287100 5.578765 1.568743 -0.960811 81.400179 -2.310465 13.035867 -13.042885 19.593015 -2.425643 0.401347 -0.236711 10.176168 -14.965262 7.927247 -2.217100 7.125000 0.000000 0.000000 8.291700 -21.637300 4.698400 
-12.181988 17.857951 -9.514183 -5.825284 51.113427 -2.621022 -3.002343 -0.022867 0.417167 -9.394569 -7.132188 -25.542291 -0.033074 8.341802 23.439897 0.103623 0.589113 5.096171 0.219000 -3.012400 -8.313400 1.813107 -0.981099 1.957569 26.778104 -0.995008 3.096765 0.113747 -4.192026 13.740437 -0.165861 -0.787412 -4.040315 -0.294100 -3.487000 9.637700 4.319434 1.394464 9.202810 2.414955 2.457082 1.616966 -0.477235 1.264797 -3.008736 -11.598057 -7.249635 -11.994109 6.382286 -8.353973 22.938340 4.074300 -4.224800 15.095500 -6.812257 -0.601559 -1.549989 -85.150206 3.536805 15.913452 13.005366 -18.367165 -2.454602 -1.772702 -2.301294 9.163895 20.143953 21.962868 9.283700 -7.125000 0.000000 0.000000 -8.570000 55.835700 -2.290500 5.601348 1.564402 -0.952163 81.169124 -2.064257 13.320597 -13.092318 19.669876 -2.445598 0.395195 -0.227110 10.250217 -14.774915 7.783920 -2.146400 7.125000 0.000000 0.000000 8.439700 -21.801500 4.752200 
-12.133007 17.854833 -9.473248 -5.772180 51.153911 -2.508122 -3.060387 -0.047008 0.421002 -9.445643 -6.846141 -25.604800 -0.295625 7.828422 21.923834 0.204039 0.124680 5.303584 0.232800 -3.105600 -8.572800 1.822409 -0.983249 1.965882 26.715966 -1.158070 3.530517 0.168740 -3.977076 13.145514 -0.135511 -0.887002 -3.794604 -0.273100 -3.361700 9.287500 4.337764 1.482812 9.292110 2.364750 2.579560 1.535968 -0.600834 1.328392 -3.221102 -11.569018 -7.303676 -11.814212 6.448646 -8.464899 22.925752 4.089500 -4.261400 15.072300 -6.824944 -0.579236 -1.552876 -85.031555 3.774916 15.726831 12.787759 -18.057340 -2.363407 -1.818246 -2.295604 9.619922 20.321253 22.174884 9.456100 -7.125000 0.000000 0.000000 -8.450700 56.104000 -2.313400 5.593673 1.569701 -0.961008 81.265716 -2.323171 13.301201 -13.165092 19.776266 -2.473673 0.395153 -0.221022 10.159949 -14.760371 7.681542 -2.115200 7.125000 0.000000 0.000000 8.454900 -21.912300 4.739400 
-12.082919 17.854833 -9.430603 -5.652703 51.197809 -2.284332 -3.119722 -0.070663 0.414230 -9.482107 -6.734071 -25.658138 -0.527028 7.341497 20.504077 0.284244 -0.241916 5.437699 0.218400 -3.008700 -8.302900 1.830771 -0.987580 1.976239 26.626045 -1.242250 3.964093 0.228213 -3.746185 12.504462 -0.095196 -1.050418 -3.650091 -0.247600 -3.202000 8.841600 4.293127 1.530342 9.266479 2.331544 2.632395 1.481096 -0.648906 1.357852 -3.316138 -11.605482 -7.334495 -11.801274 6.495435 -8.505341 22.972390 4.116900 -4.277300 15.113000 -6.843832 -0.561734 -1.554079 -85.012105 3.907017 15.409309 12.568965 -17.735801 -2.270862 -1.879896 -2.277269 9.930317 20.733833 22.230990 9.692300 -7.125000 0.000000 0.000000 -7.982800 56.251800 -2.212700 5.591438 1.573133 -0.966391 81.324030 -2.416352 13.217298 -13.181627 19.797724 -2.478806 0.400915 -0.224407 10.206018 -14.934284 7.711566 -2.150100 7.125000 0.000000 0.000000 8.323200 -21.872100 4.671700 
